PathFileType	4	(X/Y/Z)	/Volumes/GoogleDrive/My Drive/Research/Stanford/Projects/Digital Athlete Project/Sprinting/Sprint Simulation/sprinter/subjects/JA1/experimental_data/TRC/run0350cms.trc
DataRate	CameraRate	NumFrames	NumMarkers	Units	OrigDataRate	OrigDataStartFrame	OrigNumFrames
250.000000	250.000000	4	53	mm	250.000000	314	836
Frame#	Time	C7			RSH			LSH			MAN			T7			LARM			LELB			LFOREARM			LWR			RARM			RELB			RFOREARM			RWR			RASI			LASI			SACR			P1			P2			P3			LTHLP			LTHLD			LTHAP			LTHAD			LLEPI			LPAT			LTIAP			LTIAD			LTILAT			LLMAL			LHEEL			LMFS			LMFL			LP1MT			LTOE			LP5MT			RTHLP			RTHLD			RTHAP			RTHAD			RLEPI			RPAT			RTIAP			RTIAD			RTILAT			RLMAL			RHEEL			RMFS			RMFL			RP1MT			RTOE			RP5MT			x52			x53			
		X1	Y1	Z1	X2	Y2	Z2	X3	Y3	Z3	X4	Y4	Z4	X5	Y5	Z5	X6	Y6	Z6	X7	Y7	Z7	X8	Y8	Z8	X9	Y9	Z9	X10	Y10	Z10	X11	Y11	Z11	X12	Y12	Z12	X13	Y13	Z13	X14	Y14	Z14	X15	Y15	Z15	X16	Y16	Z16	X17	Y17	Z17	X18	Y18	Z18	X19	Y19	Z19	X20	Y20	Z20	X21	Y21	Z21	X22	Y22	Z22	X23	Y23	Z23	X24	Y24	Z24	X25	Y25	Z25	X26	Y26	Z26	X27	Y27	Z27	X28	Y28	Z28	X29	Y29	Z29	X30	Y30	Z30	X31	Y31	Z31	X32	Y32	Z32	X33	Y33	Z33	X34	Y34	Z34	X35	Y35	Z35	X36	Y36	Z36	X37	Y37	Z37	X38	Y38	Z38	X39	Y39	Z39	X40	Y40	Z40	X41	Y41	Z41	X42	Y42	Z42	X43	Y43	Z43	X44	Y44	Z44	X45	Y45	Z45	X46	Y46	Z46	X47	Y47	Z47	X48	Y48	Z48	X49	Y49	Z49	X50	Y50	Z50	X51	Y51	Z51	X52	Y52	Z52	X53	Y53	Z53	
314	1.256000	-993.048645	1559.951294	243.705994	-938.646362	1548.723267	400.276489	-1001.455261	1545.505859	82.944824	-861.795166	1462.403931	217.832581	-1066.102173	1376.398438	252.472870	-1126.029175	1421.909912	-3.959453	-1228.052490	1328.997437	-34.652832	-1186.372681	1185.053345	-32.099419	-1162.993896	1058.903442	-24.461033	-954.317932	1379.929932	509.867676	-975.518250	1250.989502	564.447693	-849.653809	1258.365845	500.166595	-739.186462	1269.753662	436.457581	-870.824951	1076.798706	328.025543	-902.058655	1089.234863	118.226540	-1066.104614	1131.895386	251.052261	-1082.974976	1101.578491	199.384369	-1068.623901	1102.647949	305.742096	-1102.054443	1046.187256	255.287064	-906.227295	787.593201	58.145924	-855.699951	687.840027	79.469963	-791.264282	832.127014	134.043152	-755.279480	731.142456	147.038147	-801.296631	579.492798	105.825043	-719.460022	618.539429	167.512665	-741.062988	421.029388	189.295685	-725.154663	282.604034	200.226807	-777.560974	339.935211	121.932358	-736.247375	124.657356	163.368729	-795.927979	96.498764	217.815399	-630.078247	128.327789	211.533005	-659.065735	86.023918	159.397797	-568.249084	87.260284	255.125519	-536.822937	100.384010	213.083481	-594.114197	44.160690	140.314575	-1007.958984	808.224243	409.030945	-1028.752197	698.766846	387.859741	-904.789856	761.390015	315.790619	-933.001038	668.548889	304.184082	-1087.277344	567.815796	347.108398	-1019.035767	508.840210	291.799713	-1277.557617	460.686035	279.961365	-1400.572632	429.842041	272.158295	-1303.388306	508.908173	352.232483	-1523.764648	420.142975	332.097687	-1566.359253	475.629150	275.627045	-1507.751587	310.985657	301.064575	-1553.550415	350.759552	347.000061	-1543.737793	241.914444	261.361877	-1529.280640	218.896896	303.523346	-1581.970703	276.152405	376.373108	-1151.111694	994.787659	-20.578823	-677.409241	1276.122070	400.829224
315	1.260000	-978.307251	1557.517578	242.654343	-924.551270	1545.711548	399.999023	-986.575989	1542.134033	81.870895	-847.530273	1459.250000	217.943222	-1052.371948	1373.765503	252.123749	-1110.253906	1417.282104	-5.312854	-1211.775269	1323.791870	-36.745491	-1167.993164	1180.483521	-34.482231	-1143.231689	1054.564697	-26.510485	-941.969910	1377.163940	509.521088	-964.675598	1248.710205	564.097046	-837.501831	1252.087769	501.412170	-726.969604	1259.875488	437.637512	-857.101929	1074.620605	328.319641	-888.963684	1086.812988	118.609367	-1052.261475	1128.597900	251.153961	-1069.296875	1098.031860	199.420975	-1055.055054	1099.221313	305.889740	-1088.201782	1042.787476	255.322113	-891.938721	785.893982	59.566135	-841.653381	685.967712	79.838936	-776.444519	831.641724	133.276581	-740.973694	729.502136	145.870346	-788.219971	576.839233	105.587196	-705.301514	615.135376	165.963013	-729.308228	417.178864	188.938080	-715.789185	278.544159	199.847504	-768.185242	336.418549	122.207726	-729.695801	120.781891	163.572449	-789.961243	93.321938	217.990387	-623.407104	122.997162	211.466232	-649.664856	82.517326	161.063553	-561.778625	81.309792	255.048828	-530.539185	94.118767	212.870850	-589.261597	38.199997	140.395432	-990.969910	804.391113	408.996887	-1010.102783	694.692200	387.959503	-887.188721	759.066772	315.773804	-914.634277	665.521973	303.564850	-1065.963501	563.062195	347.539398	-998.105347	504.429413	291.736938	-1256.992554	460.588196	278.568787	-1381.666138	432.375244	272.011932	-1283.008667	508.585541	352.050751	-1505.179199	425.716827	332.008453	-1546.403564	481.795288	274.585785	-1491.604980	316.119568	302.179108	-1536.389404	357.524139	347.616028	-1529.410767	247.237106	263.315277	-1515.255615	224.506271	305.680573	-1567.977539	283.829193	377.262543	-1130.646729	990.566467	-22.458843	-665.156067	1264.230713	401.972473
316	1.264000	-963.835266	1554.166870	241.561691	-910.533997	1542.460938	399.596710	-972.362915	1538.560303	81.528084	-833.244690	1455.794312	217.750000	-1038.369507	1371.048584	251.677032	-1094.261719	1412.357788	-7.147149	-1194.844360	1318.335083	-39.085995	-1150.161987	1175.292114	-36.215092	-1123.613159	1049.823486	-28.358450	-929.701416	1374.318115	509.192627	-953.859497	1246.353760	563.754761	-826.569946	1245.483276	501.567963	-715.684143	1249.724365	438.311218	-843.414124	1072.358887	328.605621	-875.309631	1084.174683	118.704079	-1038.706909	1124.852539	251.351151	-1055.716553	1094.669678	199.814453	-1041.616577	1095.668945	305.979492	-1074.566040	1038.633179	255.469620	-877.391846	784.113159	60.840126	-827.604980	683.924316	80.201546	-761.423889	831.114807	132.541962	-726.501831	727.708679	144.485153	-774.947998	574.095703	105.077400	-691.243652	611.390198	164.407318	-717.793274	413.249420	188.387299	-706.896484	274.372101	199.600311	-758.847290	332.991119	122.215622	-723.796448	116.767479	163.537094	-784.975159	90.387085	217.279373	-617.453491	117.319962	211.510773	-648.666809	75.424080	160.218536	-556.563965	74.790718	255.218552	-525.339111	87.062439	212.996246	-584.352478	32.188854	140.275864	-974.000366	800.591309	409.004700	-991.152771	690.460876	388.180267	-869.559265	756.618958	315.781250	-895.526611	662.354126	303.710144	-1044.611206	558.021606	347.856842	-976.927002	499.997589	291.722504	-1238.164185	459.665955	279.582581	-1362.266846	434.493652	271.746704	-1262.346680	508.145203	351.996277	-1486.201172	431.115143	331.707733	-1526.046997	487.564423	273.618683	-1475.010742	321.016418	303.251099	-1518.763184	364.026794	348.123505	-1514.689453	252.516647	265.181793	-1501.057983	229.984665	307.697174	-1551.977661	291.222778	378.604004	-1110.119751	986.054016	-24.365311	-653.672852	1252.096069	402.935791
317	1.268000	-949.835632	1551.119629	240.854050	-896.592041	1539.027954	399.248871	-957.252380	1534.915405	80.341843	-818.995239	1452.197144	217.741898	-1024.956543	1368.078491	251.294281	-1078.214844	1407.177734	-8.894506	-1177.504272	1312.651733	-41.762016	-1131.355713	1170.396973	-38.379204	-1103.279297	1045.111084	-30.443043	-917.460327	1371.179199	508.884491	-942.921753	1243.710815	563.693848	-815.728760	1238.860474	501.797119	-703.831787	1239.405151	439.861298	-829.884583	1069.868774	328.890503	-861.572388	1081.450439	118.442253	-1025.186157	1121.202881	251.543350	-1042.478638	1090.856079	199.824982	-1028.117188	1091.818481	306.142151	-1060.930908	1035.067017	255.533112	-863.142456	782.062744	61.726437	-813.258484	681.882019	80.463615	-746.263550	830.109985	131.383438	-711.805298	725.723938	143.166153	-761.829346	570.992371	104.884209	-677.340332	607.515686	162.906235	-706.499878	409.056732	187.894791	-698.517395	270.002838	199.271515	-749.686096	329.478271	122.187225	-718.421143	112.818230	163.041824	-780.625000	87.598145	216.249512	-612.149780	111.586037	211.595886	-641.456177	71.852539	157.222443	-552.275146	67.156647	256.422150	-520.836975	79.922729	213.433411	-580.774658	29.060928	139.282440	-956.949585	796.520569	409.114471	-972.350281	686.023438	388.437805	-851.925537	754.207214	315.890625	-877.703918	658.818481	302.551544	-1023.094421	553.082764	348.323761	-955.693298	495.502075	291.887756	-1217.837524	459.071411	279.129669	-1343.722778	435.993927	272.507629	-1241.430542	507.557800	351.992676	-1466.672607	436.588318	331.529480	-1505.308716	493.109344	272.508545	-1458.126953	325.636658	304.024231	-1500.495850	370.469879	348.720581	-1499.153442	257.551910	267.363770	-1485.845337	235.595200	309.967133	-1534.486328	298.990265	380.681580	-1089.009399	981.434570	-26.409489	-641.255005	1239.709717	405.224579
